<svg viewBox="0 0 120 120" fill="none" xmlns="http://www.w3.org/2000/svg" role="img" aria-label="CATS logo">
  <!-- Headphone band + cups -->
  <path d="M22 64a38 38 0 0 1 76 0" stroke="currentColor" stroke-width="7" stroke-linecap="round"/>
  <rect x="12" y="58" width="16" height="30" rx="8" fill="currentColor"/>
  <rect x="92" y="58" width="16" height="30" rx="8" fill="currentColor"/>

  <!-- Head -->
  <path d="M60 26c-4 0-7 2-10 6l-9 12c-9 3-15 12-15 24 0 16 15 28 34 28s34-12 34-28c0-12-6-21-15-24l-9-12c-3-4-6-6-10-6z" fill="currentColor"/>

  <!-- Ears (cut out triangles) -->
  <path d="M44 44l-9-13 14 3z" fill="#000"/>
  <path d="M76 44l9-13-14 3z" fill="#000"/>

  <!-- Glasses -->
  <circle cx="48" cy="66" r="7" fill="#000" stroke="currentColor" stroke-width="3.5"/>
  <circle cx="72" cy="66" r="7" fill="#000" stroke="currentColor" stroke-width="3.5"/>
  <path d="M55 66h10" stroke="currentColor" stroke-width="3.5" stroke-linecap="round"/>

  <!-- Mic boom -->
  <path d="M93 70c0 12-8 20-18 22" stroke="currentColor" stroke-width="4" stroke-linecap="round" fill="none"/>
  <circle cx="74" cy="93" r="4" fill="currentColor"/>
</svg>
