<svg width="1043" height="945" viewBox="0 0 1043 945" fill="none" xmlns="http://www.w3.org/2000/svg">
<path d="M286.904 97.4212C355.039 31.3652 438.083 -1.90479 533.1 0.0842069C622.091 1.94821 696.399 35.1452 759.266 97.0942C781.556 83.4872 860.028 34.2462 878.438 71.6902C893.39 102.095 891.742 150.439 890.709 183.955C890.417 197.422 887.355 213.25 887.268 225.075C897.53 246.37 904.15 266.033 909.73 288.92C934.96 288.872 973.27 289.586 972.08 325.792C971.62 339.989 963.54 360.371 957.25 373.534C964.43 395.696 967.1 416.946 964.32 440.244C987.76 455.836 1022.03 474.582 1038.16 496.961C1051.23 522.249 1033.13 537.078 1012.78 549.744C997.75 559.099 979.62 569.337 963.36 576.527C957.04 580.069 947.52 584.448 944.21 591.065C943.55 592.382 945.73 598.376 946.45 599.723C957.38 620.118 974.25 643.521 981.68 665.532C991.92 691.372 1004.91 727.593 970.18 740.629C968.61 741.218 967.02 741.761 965.42 742.255C937.71 748.926 912.81 747.089 884.796 744.366C877.526 743.659 867.526 743.015 861.761 748.113C859.579 762.145 861.341 769.999 861.055 783.443C860.613 804.247 859.313 828.846 853.822 848.856C843.847 883 819.462 882.31 790.815 871.295C755.013 859.542 721.226 836.451 687.822 821.869L687.495 822.785C677.963 849.891 665.711 922.83 639.66 935.85C634.225 938.57 628.423 938.34 622.778 936.35C593.584 926.08 547.421 858.552 527.442 832.367C509.352 858.62 464.707 938.57 433.444 943.99C426.788 945.14 420.563 943.58 415.135 939.61C391.248 922.12 369.04 853.06 356.865 825.671C322.841 841.279 287.477 861.381 252.298 873.76C249.416 874.72 246.519 875.64 243.608 876.51C216.135 884.81 197.957 881.39 189.084 851.895C181.405 829.209 181.449 791.338 181.913 767.01C181.709 763.344 182.93 752.434 181.043 749.538C175.791 741.476 153.283 744.937 145.413 745.499C122.087 747.162 100.052 748.562 77.2019 742.837C35.9229 731.338 50.0089 693.792 62.1199 665.045C71.7489 642.365 84.5519 622.054 96.9629 600.925C98.4529 598.387 99.4959 594.76 99.6279 591.798C96.2759 584.928 87.2299 581.067 80.4649 577.283C64.5959 569.126 47.9799 561.245 32.6059 552.245C21.1379 545.531 3.91391 534.064 0.604913 520.216C-1.31409 512.184 1.58391 505.529 5.76391 498.938C19.3249 478.018 60.2889 453.958 82.5929 440.381C78.4799 421.494 81.9569 393.375 89.3719 375.506C82.6119 362.833 73.7449 339.232 73.7289 324.931C73.6889 289.249 111.392 288.883 136.023 289.095C139.999 274.893 143.873 261.601 148.916 247.689C150.996 241.951 157.353 229.409 158.55 224.386C154.845 179.223 147.694 116.541 166.169 73.7262C184.198 31.9452 261.814 83.8852 286.904 97.4212ZM373.467 156.7C415.745 184.332 412.598 182.701 442.14 144.671C455.008 126.741 471.106 103.71 484.98 86.9772C513.324 49.9242 531.526 49.0582 560.068 86.5762C572.204 100.723 582.792 116.509 593.829 131.539C596.686 135.43 599.935 139.749 602.541 143.77C631.702 181.697 628.903 184.867 671.132 157.13C687.633 144.863 711.314 128.762 728.409 117.503C671.409 63.2462 594.956 34.2382 516.312 37.0292C439.526 39.3762 374.437 66.4002 318.044 117.887C333.868 129.724 356.947 145.81 373.467 156.7Z" fill="#FE861F"/>
<path d="M493.511 579.411C506.839 571.18 536.906 571.244 550.313 578.933C598.725 580.768 665.831 589.502 701.705 625.793C715.046 639.29 718.522 658.114 710.055 675.378C694.457 671.631 682.702 674.261 666.954 675.993C654.54 677.358 644.246 677.152 633.225 683.933C624.535 689.236 618.332 697.801 616.006 707.712C613.48 718.708 615.451 727.216 620.647 736.967C539.859 764.712 416.486 754.837 349.791 696.677C340.135 688.256 328.731 670.28 329.607 656.984C333.724 594.48 446.086 579.025 493.511 579.411Z" fill="#FCE2C8"/>
<path d="M493.511 579.411C506.839 571.18 536.906 571.244 550.313 578.933C555.127 584.364 554.755 589.778 550.643 595.744C545.928 603.051 533.594 611.852 525.014 613.183C513.576 614.957 492.453 600.117 490.814 588.195C490.29 584.385 491.371 582.228 493.511 579.411Z" fill="#2B2339"/>
<path d="M480.96 636.874C482.063 636.937 484.811 637.076 485.715 637.825C490.605 642.062 492.292 647.905 497.503 652.254C512.442 664.72 537.331 663.354 550.726 649.204C553.151 647.021 556.227 637.695 559.871 637.335C574.617 635.878 569.985 647.623 566.31 653.908C562.368 659.731 557.254 664.666 551.296 668.4C508.608 694.968 457.915 648.22 480.96 636.874Z" fill="#2B2339"/>
<path d="M877.246 280.476C881.211 261.603 883.589 243.265 887.268 225.075C897.53 246.37 904.15 266.033 909.73 288.92C934.96 288.872 973.27 289.586 972.08 325.792C971.62 339.989 963.54 360.371 957.25 373.534C964.43 395.696 967.1 416.946 964.32 440.244C987.76 455.836 1022.03 474.582 1038.16 496.961C1051.23 522.249 1033.13 537.078 1012.78 549.744C997.75 559.099 979.62 569.337 963.36 576.527C960.18 574.678 953.74 574.21 949.73 573.169C933.6 568.977 923.92 565.288 910.87 555.327C894.5 612.088 861.354 660.901 808.915 689.937C786.36 702.309 761.93 710.903 736.596 715.377C735.309 726.37 731.218 734.9 722.309 741.828C718.18 745 713.492 747.369 708.49 748.813C697.307 752.099 684.341 751.771 672.901 753.504C651.902 756.685 634.126 755.157 620.647 736.967C615.451 727.216 613.48 718.708 616.006 707.712C618.332 697.801 624.535 689.236 633.225 683.933C644.246 677.152 654.54 677.358 666.954 675.993C682.702 674.261 694.457 671.631 710.055 675.378C722.861 680.917 728.592 685.687 734.533 698.437C771.998 692.825 810.149 673.068 838.151 647.715C822.799 641.43 806.501 636.016 790.674 631.037C783.255 628.703 765.618 624.584 760.213 621.298C758.746 620.406 757.767 619.021 757.413 617.339C757.061 615.664 757.501 613.95 758.472 612.567C759.445 611.181 760.892 610.338 762.559 610.091C768.739 609.177 840.133 633.267 845.626 637.823C846.463 638.517 845.857 638.317 847.11 638.289C850.393 635.177 855.739 627.88 858.658 623.961C883.341 590.825 895.28 555.937 902.19 515.841C876.843 514.613 861.753 498.069 854.343 474.883C852.425 468.859 851.167 462.645 850.591 456.35C849.687 446.679 849.96 433.312 849.994 423.25C850.042 409.242 849.438 392.201 851.605 378.721C852.952 370.254 855.627 362.052 859.53 354.419C866.535 340.932 875.712 332.975 890.071 328.38C887.741 315.545 885.765 302.601 881.941 290.125C880.347 286.44 879.17 283.996 877.246 280.476Z" fill="#2B2339"/>
<path d="M964.32 440.244C987.76 455.836 1022.03 474.582 1038.16 496.961C1051.23 522.249 1033.13 537.078 1012.78 549.744C997.75 559.099 979.62 569.337 963.36 576.527C960.18 574.678 953.74 574.21 949.73 573.169C933.6 568.977 923.92 565.288 910.87 555.327C913.48 546.277 915.2 537.939 917.15 528.701C918.18 522.975 918.86 518.193 919.51 512.408C949.29 498.152 959.38 471.24 964.32 440.244Z" fill="#E85F10"/>
<path d="M964.32 440.244C987.76 455.836 1022.03 474.582 1038.16 496.961C1009.81 503.167 981.25 507.265 953.3 515.396C948.52 516.786 917.57 528.706 917.15 528.701C918.18 522.975 918.86 518.193 919.51 512.408C949.29 498.152 959.38 471.24 964.32 440.244Z" fill="#FE861F"/>
<path d="M909.729 288.92C934.959 288.872 973.269 289.586 972.079 325.792C971.619 339.989 963.54 360.371 957.25 373.534L956.339 371.471C947.619 351.808 936.969 336.739 916.419 328.837C915.229 315.424 912.629 302.054 909.729 288.92Z" fill="#FE861F"/>
<path d="M158.55 224.386C161.999 247.877 165.082 269.542 171.976 292.524C169.175 291.964 166.37 291.428 163.561 290.914C160.169 304.169 158.345 315.288 156.312 328.81C171.225 333.696 180.49 341.568 187.754 355.817C191.35 362.978 193.809 370.656 195.041 378.573C198.473 400.112 195.968 430.354 195.528 452.215C195.157 470.606 181.887 498.291 164.074 505.52C116.84 524.688 89.2095 479.428 82.5925 440.381C78.4795 421.494 81.9566 393.375 89.3716 375.506C82.6116 362.833 73.7445 339.232 73.7285 324.931C73.6885 289.249 111.392 288.883 136.023 289.095C139.999 274.893 143.873 261.601 148.916 247.689C150.996 241.951 157.353 229.409 158.55 224.386Z" fill="#2B2339"/>
<path d="M89.3716 375.506C82.6116 362.833 73.7445 339.232 73.7285 324.931C73.6885 289.249 111.392 288.883 136.023 289.095C133.009 303.238 130.629 316.215 129.477 330.698C107.999 338.569 97.8706 355.453 89.3716 375.506Z" fill="#FE861F"/>
<path d="M286.904 97.4212C355.039 31.3652 438.083 -1.90479 533.1 0.0842069C622.091 1.94821 696.399 35.1452 759.266 97.0942C749.163 104.152 738.666 110.645 728.409 117.503C671.409 63.2462 594.956 34.2382 516.312 37.0292C439.526 39.3762 374.437 66.4002 318.044 117.887C307.723 110.872 297.103 104.429 286.904 97.4212Z" fill="#2B2339"/>
<path d="M484.979 86.9772C513.323 49.9242 531.526 49.0582 560.068 86.5762C560.047 86.7512 560.024 86.9262 560.005 87.1022C558.634 99.8012 559.825 114.884 559.56 127.92C558.898 160.509 556.548 264.796 532.12 285.311C529.134 287.819 525.395 289.068 521.494 288.745C516.697 288.349 512.829 285.476 509.95 281.777C490.557 256.854 486.154 165.692 485.88 132.449C485.82 125.05 487.365 91.7632 484.979 86.9772Z" fill="#E85F10"/>
<path d="M62.1197 665.045C62.4997 665.035 62.8807 665.024 63.2607 665.014C95.1897 658.955 129.671 647.845 162.585 651.352C186.729 653.925 184.993 673.997 170.159 687.726C150.314 706.091 128.692 719.558 104.23 730.899C98.6197 733.551 80.6877 740.254 77.2017 742.837C35.9227 731.338 50.0087 693.792 62.1197 665.045Z" fill="#E85F10"/>
<path d="M862.617 667.863C868.87 647.388 887.962 649.818 905.63 650.847C921.62 651.779 937.72 655.535 953.35 658.786C962.58 660.705 972.42 664.256 981.68 665.532C991.92 691.372 1004.91 727.593 970.18 740.629C968.61 741.218 967.02 741.761 965.42 742.255C959.29 738.093 950.01 735.775 943.2 732.519C917.92 720.42 869.711 696.695 862.617 667.863Z" fill="#E85F10"/>
<path d="M189.084 851.895L189.731 850.866C194.022 843.915 198.299 833.143 202.285 825.351C212.891 804.619 245.698 748.463 269.054 744.179C311.116 736.463 270.319 829.637 264.293 844.798C259.728 857.471 255.289 863.568 252.298 873.76C249.416 874.72 246.519 875.64 243.608 876.51C216.135 884.81 197.957 881.39 189.084 851.895Z" fill="#E85F10"/>
<path d="M790.815 871.295C789.724 864.735 782.747 854.093 779.966 847.143C770.713 822.516 751.377 784.948 754.708 758.113C758.413 728.265 788.731 750.797 798.884 762.754C814.146 780.729 824.388 794.577 835.92 815.149C841.25 824.659 848.166 840.795 853.822 848.856C843.847 883 819.462 882.31 790.815 871.295Z" fill="#E85F10"/>
<path d="M80.4649 577.283C64.5959 569.126 47.9799 561.245 32.6059 552.245C21.1379 545.531 3.91391 534.064 0.604913 520.216C-1.31409 512.184 1.58391 505.529 5.76391 498.938C31.8439 503.062 117.157 515.622 132.75 537.73C134.997 540.915 136.45 544.811 135.555 548.726C134.144 554.894 128.123 559.509 122.918 562.57C113.328 568.21 102.528 571.014 91.8909 573.934C88.1889 574.95 83.9409 575.684 80.4649 577.283Z" fill="#E85F10"/>
<path d="M442.14 144.671C445.172 150.343 446.604 162.128 447.716 168.743C450.673 186.543 453.148 204.644 454.142 222.657C454.792 234.424 454.813 246.579 452.006 257.926C450.014 265.979 442.656 272.695 434.132 269.393C418.948 263.51 409.56 242.81 401.833 229.383C393.937 214.137 387.151 196.238 381.085 180.288C378.955 174.687 374.44 162.207 373.467 156.7C415.745 184.332 412.598 182.701 442.14 144.671Z" fill="#E85F10"/>
<path d="M602.541 143.77C631.702 181.697 628.903 184.867 671.132 157.13C671.099 158.161 671.008 159.188 670.858 160.208C669.791 167.988 665.605 176.697 662.819 184.044C654.356 206.357 636.867 252.407 617.424 266.287C613.483 269.1 608.701 270.765 603.856 269.694C600.501 268.952 597.76 266.933 595.931 264.041C583.091 243.743 597.74 167.871 602.541 143.77Z" fill="#E85F10"/>
<path d="M874.309 292.334C875.407 288.657 876.347 284.257 877.246 280.476C879.17 283.996 880.347 286.44 881.941 290.125C879.571 291.603 877.098 291.804 874.309 292.334Z" fill="#2B2339"/>
<path d="M591.55 494.382C593.961 481.485 597.935 471.009 606.26 460.639C617.298 446.861 633.388 438.067 650.945 436.217C668.223 434.402 685.508 439.582 698.939 450.601C713 462.037 721.852 478.663 723.49 496.714C725.222 515.132 719.644 533.494 707.958 547.836C695.798 562.583 679.868 570.033 661.101 571.897C645.148 572.7 629.448 567.664 616.939 557.73C600.888 545.179 593.6 529.036 591.203 509.239C542.871 507.634 502.007 507.401 453.602 509.325C452.922 521.282 448.343 533.929 441.333 543.624C430.881 558.265 415.02 568.132 397.268 571.038C379.972 573.806 362.286 569.569 348.121 559.264C333.479 548.586 323.751 532.463 321.13 514.531C318.305 496.029 323.016 477.166 334.209 462.165C345.493 447.247 360.707 438.788 379.108 436.297C417.917 432.56 446.339 456.791 453.359 494.348C478.964 493.214 504.594 492.731 530.224 492.9C550.67 493.209 571.113 493.703 591.55 494.382Z" fill="#2B2339"/>
<path d="M835.636 100.644C858.013 98.1702 855.189 117.64 859.465 133.017C865.481 154.651 855.582 284.026 837.548 289.454C831.2 288.611 814.278 272.439 808.515 267.436C815.252 251.137 821.427 241.24 800.715 234.413C792.877 232.392 784.442 231.324 776.399 229.788C779.339 223.141 785.929 210.794 783.042 204.035C775.621 191.867 752.007 195.335 739.502 194.406C735.129 194.081 723.154 196.706 721.962 192.502C723.373 188.272 730.398 180.034 733.55 176.529C756.852 150.611 801.465 108.807 835.636 100.644Z" fill="#FCE2C8"/>
<path d="M201.796 100.655C232.05 97.8842 291.115 152.847 310.804 175.219C313.623 178.422 324.984 189.697 323.713 193.773C319.464 196.097 303.357 193.95 297.402 194.372C264.004 196.74 253.766 196.303 269.67 229.817C263.955 230.732 258.252 231.721 252.563 232.784C225.962 238.063 228.437 245.368 237.207 267.314C232.552 271.507 213.432 290.207 207.524 289.366C203.801 287.506 202.106 284.24 200.735 280.428C188.558 246.587 176.003 142.489 191.69 110.238C194.148 105.186 196.494 102.547 201.796 100.655Z" fill="#FCE2C8"/>
<path d="M763.097 574.398C769.928 573.962 796.556 576.682 803.779 577.463C816.48 578.865 829.165 580.405 841.833 582.082C846.365 582.673 854.241 583.214 858.289 584.669C865.138 587.132 862.806 593.494 858.352 596.902C855.085 597.16 848.588 595.955 844.984 595.502L818.741 592.28C800.938 590.215 782.896 588.828 765.124 586.595C763.305 586.294 762.011 586.209 760.798 584.673C757.614 580.642 760.144 577.089 763.097 574.398Z" fill="#2B2339"/>
<path d="M267.911 574.725C270.485 574.4 277.995 573.664 279.72 575.331C284.048 579.515 281.915 585.873 275.743 586.655C265.565 587.944 255.555 588.714 245.446 589.766C228.21 591.614 211.003 593.721 193.83 596.085C189.162 596.954 182.62 597.828 180.861 591.615C180.474 590.226 180.768 588.736 181.653 587.598C184.312 584.117 191.41 583.514 195.533 582.906C219.652 579.35 243.569 576.257 267.911 574.725Z" fill="#2B2339"/>
<path d="M840.795 523.836C843.993 523.537 846.971 523.938 848.265 527.418C849.642 531.018 847.999 535.212 844.108 536.216C835.249 538.502 825.939 540.093 816.969 541.865C800.199 545.104 783.507 548.738 766.909 552.765C756.245 554.371 756.148 542.149 763.498 540.364C788.827 534.213 815.122 528.228 840.795 523.836Z" fill="#2B2339"/>
<path d="M199.132 523.556C211.353 523.517 233.465 530.707 246.289 532.709C256.505 534.304 268.789 537.973 278.905 540.421C285.858 542.104 284.924 548.711 279.495 553.11C272.925 552.893 253.531 547.587 245.814 546.003C231.244 542.821 216.609 539.923 202.06 536.646C193.514 534.721 192.751 529.064 199.132 523.556Z" fill="#2B2339"/>
<path d="M277.324 610.028C285.201 609.628 286.343 619.973 280.353 622.085C271.419 625.234 262.108 627.761 253.061 630.647C236.072 636.043 219.207 641.825 202.48 647.988C201.358 648.04 200.43 648.051 199.347 647.657C197.498 646.983 195.77 645.187 195.251 643.275C194.828 641.713 195.214 640.073 196.052 638.727C199.74 632.798 267.864 612.686 277.324 610.028Z" fill="#2B2339"/>
<path d="M366.159 365.849C376.629 364.816 385.705 366.788 395.543 370.78C401.148 373.054 405.352 379.15 401.291 384.761C396.968 390.733 384.589 382.028 378.728 381.378C372.59 380.698 367.828 380.851 361.58 382.253L360.728 382.45C349.81 385.94 348.788 390.104 339.993 394.799C332.829 398.623 326.142 390.467 332.875 382.656C341.792 372.309 353.251 367.665 366.159 365.849Z" fill="#2B2339"/>
<path d="M671.177 365.902C680.831 365.247 690.968 366.907 699.543 371.59C704.847 374.487 720.907 383.755 715.279 391.537C707.875 401.776 701.115 389.554 694.586 386.038C694.358 385.902 694.13 385.766 693.902 385.631C684.78 381.02 676.016 379.292 665.788 382.046C661.714 383.045 650.417 389.515 646.892 385.683C634.048 371.719 665.678 366.507 671.177 365.902Z" fill="#2B2339"/>
</svg>
