<svg xmlns="http://www.w3.org/2000/svg" viewBox="73 133 370 306">
<path fill-rule="evenodd" fill="#8e69e0" opacity="1.000000" stroke="none" 
	d="
M87.884949,301.162354 
	C91.011002,292.089020 93.898308,283.322906 102.071213,277.806549 
	C103.904099,276.569427 103.397865,274.942719 102.878487,273.342316 
	C100.984627,267.506531 102.145821,261.827179 103.652878,256.147491 
	C104.179672,254.162140 105.081749,252.409622 106.594025,251.025131 
	C114.747589,243.560394 117.922318,234.582001 117.354057,223.333527 
	C116.211388,200.714859 118.883209,178.447891 127.583862,157.286362 
	C131.399567,148.005890 137.687576,145.175507 147.264313,148.006760 
	C158.403809,151.300034 168.391937,157.002121 177.820023,163.629120 
	C180.553223,165.550262 182.762314,165.982803 185.466309,164.156769 
	C197.293304,156.169907 210.277496,151.075516 224.275101,148.369141 
	C251.949814,143.018387 279.026398,144.932281 305.120331,155.720840 
	C310.475586,157.934982 315.335205,161.641312 320.689362,164.230560 
	C323.442963,165.562195 325.411804,165.494690 327.964355,163.739746 
	C337.323486,157.305054 347.147888,151.685837 358.128235,148.416748 
	C369.185883,145.124619 375.504089,148.236038 379.606903,159.132889 
	C384.338593,171.699890 386.152710,184.858887 387.366119,198.149231 
	C388.292755,208.298492 387.860199,218.403275 387.466858,228.560196 
	C387.178467,236.007248 390.560638,243.746735 395.285889,248.252518 
	C400.359314,253.090271 403.015900,257.774078 403.973389,264.157471 
	C404.455383,267.370605 403.859985,270.490051 402.955658,273.522034 
	C402.421234,275.313721 402.314331,276.754272 403.978149,277.929871 
	C414.044006,285.041962 417.123108,295.991882 419.715332,307.084869 
	C424.313995,326.764069 422.041412,345.757019 413.306183,363.961884 
	C407.454437,376.157440 397.777649,383.226715 384.381592,385.108459 
	C382.361542,385.392242 380.566803,385.539856 379.312317,387.582916 
	C369.815247,403.049438 355.101624,411.468994 338.564178,417.232941 
	C321.316589,423.244415 303.397491,425.774841 285.270111,427.400543 
	C268.795349,428.878021 252.305832,428.743896 235.847778,428.149384 
	C212.128647,427.292603 188.765076,423.752655 166.498260,415.091339 
	C150.441986,408.845764 136.874542,399.237183 127.902451,384.060303 
	C126.925613,382.407898 125.843353,381.239471 123.702919,381.030243 
	C98.030403,378.520142 89.748924,363.912262 85.652893,343.537750 
	C82.806122,329.377289 84.116417,315.397766 87.884949,301.162354 
M171.204865,410.241180 
	C183.706238,415.099335 196.772736,417.856689 209.980560,419.500305 
	C244.033752,423.737976 278.086212,423.462036 311.969727,417.634308 
	C329.334961,414.647644 346.088470,409.764130 360.547302,399.113586 
	C365.696686,395.320465 370.360077,390.971924 373.633148,385.161987 
	C370.411285,383.809814 367.725189,383.136780 365.581360,381.670807 
	C362.734253,379.723877 360.811951,380.105072 358.159760,382.189056 
	C350.375122,388.306000 341.628937,392.786652 332.237976,395.947601 
	C326.384094,397.917999 319.745270,398.344879 316.409637,404.930634 
	C315.832977,406.069122 314.038208,406.718109 312.683044,407.312714 
	C306.815765,409.886902 300.595947,411.074738 294.240479,411.260040 
	C287.167816,411.466248 282.021942,407.388855 280.805176,401.046631 
	C279.397247,393.708008 282.225708,387.876282 288.846832,385.107880 
	C294.585175,382.708588 300.614105,381.617188 306.875000,381.607269 
	C310.707672,381.601166 314.197021,382.171204 316.867645,385.159393 
	C318.456696,386.937347 320.279022,386.818451 322.344086,386.241241 
	C333.423096,383.144257 343.329987,377.877411 352.216705,370.573822 
	C353.966858,369.135468 354.300049,367.992462 353.328186,365.958496 
	C344.044464,346.528900 342.644196,326.281738 347.803864,305.584778 
	C350.945679,292.982147 355.547180,281.015167 367.338165,273.616150 
	C370.177490,271.834442 368.633148,269.960510 367.770996,268.065308 
	C359.603760,250.111023 347.136993,235.892151 330.308838,225.636124 
	C327.045258,223.647141 326.536224,221.795181 327.857269,218.367554 
	C332.323273,206.779633 338.046173,195.932465 345.772003,186.184479 
	C349.116943,181.964005 353.022522,178.313965 357.844269,175.872620 
	C362.199799,173.667297 365.170654,174.940048 366.945831,179.489792 
	C367.547607,181.032166 367.961945,182.662323 368.316772,184.284134 
	C373.108124,206.183136 372.148987,227.921524 366.534393,249.547104 
	C366.004456,251.588394 364.653015,253.727417 365.712952,255.848404 
	C368.049622,260.524231 370.627533,265.079529 373.254974,269.958740 
	C373.795227,269.096252 374.234558,268.704651 374.285706,268.267609 
	C375.326965,259.364624 374.001221,249.985077 379.641968,242.011475 
	C379.806580,241.778793 379.684143,241.355728 379.733917,241.027252 
	C382.215179,224.639542 382.526184,208.205185 380.657623,191.742538 
	C379.435242,180.973129 377.661194,170.298904 373.631531,160.159958 
	C371.157379,153.934814 367.347931,152.043381 360.952209,153.893799 
	C357.608093,154.861328 354.301025,156.095398 351.153900,157.582840 
	C329.255402,167.932632 310.813416,182.735275 295.354340,201.311569 
	C293.257904,203.830750 291.460846,205.789551 287.450592,204.707092 
	C263.937073,198.360229 240.365738,198.813538 216.860199,204.921295 
	C214.137100,205.628876 212.325516,205.148300 210.451965,202.750778 
	C201.277786,191.010895 190.721268,180.622559 178.716354,171.770081 
	C168.621094,164.325790 158.019135,157.741974 145.912735,154.025406 
	C139.055908,151.920425 135.488281,153.587082 132.826736,160.101700 
	C131.445450,163.482635 130.351990,166.995148 129.331009,170.507080 
	C122.576912,193.739502 121.873497,217.450943 124.545830,241.271835 
	C125.565475,250.360794 127.242691,259.479950 130.410690,268.912598 
	C133.103928,264.165527 135.385559,260.120331 137.692535,256.089661 
	C138.571289,254.554352 138.670792,253.041321 138.184235,251.305161 
	C133.780167,235.590057 132.671402,219.544708 133.726776,203.328613 
	C134.235397,195.513504 135.489441,187.783081 137.787476,180.279449 
	C139.459503,174.819931 142.697723,173.595108 147.735809,176.233719 
	C150.126953,177.486069 152.129364,179.238205 153.999268,181.153931 
	C164.696960,192.113800 171.564377,205.308487 176.611023,219.607285 
	C177.538055,222.233902 176.695328,223.623749 174.548828,224.918900 
	C168.970795,228.284592 163.705795,232.112030 159.068283,236.694565 
	C131.708908,263.729553 120.889893,297.212708 121.075829,334.895813 
	C121.151787,350.290924 124.560616,364.987244 131.762222,378.616699 
	C140.163727,394.516998 154.079224,403.828644 171.204865,410.241180 
M226.230820,196.523911 
	C245.944382,192.795334 265.570160,193.303864 285.123444,197.704773 
	C286.970459,198.120499 288.860413,199.387024 290.669739,197.394501 
	C295.338684,192.252838 300.075043,187.172363 304.793762,182.057343 
	C283.446014,166.393478 215.482971,166.459732 200.455490,182.346481 
	C203.134079,185.216415 206.406311,187.760712 208.412979,191.071960 
	C212.636368,198.041077 218.086563,199.776840 226.230820,196.523911 
M365.575317,214.308578 
	C364.992004,203.267334 364.907562,192.151627 361.269531,181.549683 
	C358.307861,181.645264 356.728394,183.226379 355.244507,184.716995 
	C345.428741,194.577377 338.798340,206.412796 333.863434,219.315979 
	C332.803467,222.087433 334.211090,223.256744 336.212280,224.494186 
	C343.065918,228.732071 348.997284,234.086823 354.481842,239.943619 
	C356.587555,242.192230 358.512482,244.610123 360.897980,247.391907 
	C364.409607,236.425018 364.607086,225.766830 365.575317,214.308578 
M167.813873,212.612869 
	C162.266678,200.515732 155.665558,189.231873 143.674164,180.339874 
	C137.683151,203.399094 138.111679,225.026169 142.968002,246.816696 
	C145.162354,246.469269 145.659470,245.083572 146.425262,244.064987 
	C152.196976,236.387756 159.290741,230.087021 167.234818,224.830643 
	C170.571854,222.622604 171.319107,220.410400 169.625305,217.012177 
	C169.033188,215.824234 168.611938,214.551102 167.813873,212.612869 
M377.227783,324.678802 
	C377.256836,328.673798 377.313324,332.668854 377.309174,336.663818 
	C377.300354,345.148804 380.767548,352.566498 385.345886,359.246399 
	C390.990814,367.482574 401.980804,364.828583 407.023987,354.409790 
	C397.576111,354.540131 393.889221,351.844666 391.145233,342.313782 
	C388.317383,332.491547 388.338593,322.619568 391.449493,312.841248 
	C393.905914,305.120087 397.494904,298.572693 407.563843,299.242188 
	C405.944244,293.977417 402.944244,290.534088 398.094727,289.433563 
	C392.929932,288.261444 389.020569,290.997559 386.198456,295.063843 
	C380.235016,303.656281 377.815186,313.419464 377.227783,324.678802 
M399.360687,327.563843 
	C399.121613,330.419769 399.640076,333.203979 400.420471,335.907867 
	C401.213287,338.654602 402.344940,341.837738 405.814667,341.338806 
	C409.116760,340.863953 409.534729,337.682831 409.868622,334.509949 
	C407.842224,335.257385 407.537262,338.569733 405.035461,337.298828 
	C402.823242,336.175049 402.671204,333.854065 402.650299,331.662903 
	C402.623413,328.844360 402.574524,326.018433 402.742889,323.208099 
	C402.872314,321.048096 403.209351,318.622833 405.428772,317.682373 
	C407.930878,316.622162 408.150116,319.954590 410.425964,320.993073 
	C409.691040,317.643677 409.768433,314.134216 406.095215,313.544891 
	C402.133972,312.909393 401.385864,316.545624 400.588562,319.360168 
	C399.917572,321.728912 399.754395,324.241486 399.360687,327.563843 
z"/><path fill-rule="evenodd" fill="#8e69e0" opacity="1.000000" stroke="none" 
	d="
M303.619995,349.862427 
	C290.689178,356.264465 280.256439,352.554688 274.320648,339.548981 
	C273.243011,337.187805 271.910370,336.360901 269.416138,336.370300 
	C248.770111,336.447815 228.123520,336.476196 207.477600,336.393219 
	C204.185349,336.380005 202.550690,337.636414 201.159637,340.664001 
	C197.032990,349.645660 187.474060,354.105255 178.470917,351.728424 
	C169.028198,349.235535 162.474869,340.272308 163.249619,330.909607 
	C164.130768,320.260925 171.206116,312.377563 181.087479,311.034637 
	C189.779327,309.853394 199.326859,316.074066 202.068527,325.234528 
	C203.120422,328.749115 204.706223,330.014008 208.335083,329.989105 
	C228.314499,329.851959 248.295364,329.897675 268.275604,329.943420 
	C271.190460,329.950073 273.068329,329.440155 274.152527,326.082458 
	C277.057220,317.086456 284.016418,311.938507 292.506348,311.741791 
	C300.420746,311.558411 308.270203,316.654633 311.494019,324.069427 
	C315.041656,332.228973 313.227386,340.936462 306.600739,347.401581 
	C305.769623,348.212433 304.824585,348.906464 303.619995,349.862427 
M305.729767,334.944397 
	C305.751373,333.450195 305.924927,331.939880 305.768524,330.464569 
	C305.070190,323.877930 299.949768,319.176392 293.415588,319.010590 
	C286.682648,318.839783 281.181213,323.514801 280.257446,330.192261 
	C279.227600,337.636627 283.193604,343.915314 289.935760,345.514221 
	C296.774506,347.136017 302.652191,343.474640 305.729767,334.944397 
M194.002441,339.270508 
	C197.175674,333.643860 196.980240,328.018433 193.097260,322.973480 
	C189.768173,318.648193 184.958374,317.399506 179.672668,318.774963 
	C174.205170,320.197693 170.635071,324.686127 170.237183,330.281464 
	C169.803604,336.378571 172.923828,342.003876 177.925171,344.141663 
	C183.182983,346.389099 188.814819,344.854828 194.002441,339.270508 
z"/>
</svg>