<svg width="2912" height="3198" viewBox="0 0 2912 3198" fill="none" xmlns="http://www.w3.org/2000/svg">
<path d="M1812.32 475.599L1816.34 474.751C1839.92 436.506 1892.78 381.984 1925.09 348.042C2014.62 253.995 2115.76 167.219 2225.79 98.0147C2321.01 38.6817 2484.32 -42.7283 2590.84 26.5817C2665.62 75.2387 2702.89 196.403 2720.07 280.652C2754.37 455.955 2743.87 648.097 2721.78 824.607C2714.01 886.067 2703.92 947.197 2691.52 1007.9C2689.55 1017.46 2678.32 1063.8 2680.16 1069.54C2827.18 1192.71 2856.26 1378.94 2745.5 1537.19C2839.24 1614.83 2897.28 1704.17 2909.43 1828C2919.15 1929.91 2888.14 2031.52 2823.19 2110.64C2812.01 2124.16 2798.34 2137.94 2785.66 2150.2C2892.33 2323.74 2867.32 2535.24 2728.71 2682.81C2730.94 2700.55 2743.26 2724.81 2746.18 2745.69C2767.43 2897.69 2670.13 3018.46 2527.42 3059.93C2436.38 3093.19 2305.48 3089.18 2210.37 3078.39C2206.54 3091.26 2203.17 3105.74 2194.41 3116.08C2212 3129.09 2226.92 3140.96 2223.56 3167.05C2222.1 3178.32 2212.58 3185.34 2203.88 3191.57C2163.06 3198.52 2100.22 3196 2057.11 3196L1825.49 3196.02L970.726 3195.95C934.436 3195.98 727.356 3200.88 709.976 3192.03C695.626 3184.72 691.386 3171.24 686.606 3157.11C686.706 3156.81 689.656 3148.98 689.696 3148.75C692.636 3131 710.036 3125.39 717.676 3114.37C707.216 3102.84 705.586 3093 701.846 3078.24C688.816 3080.83 664.086 3081.74 649.976 3083.07C572.866 3090.31 454.816 3086.18 382.478 3059.86C243.061 3022.18 141.428 2893.02 164.37 2745.67C167.699 2724.29 179.45 2702.55 182.964 2682.78C52.7629 2547.48 24.4599 2358.75 104.987 2190.28C111.502 2176.65 118.625 2163.24 125.644 2149.87C-0.434067 2027.37 -35.3201 1860.58 37.8219 1697.89C68.9899 1628.56 109.144 1585.31 166.494 1537.06C55.9509 1374.99 81.9999 1199.55 229.725 1071.52C232.051 1061.57 218.351 1007.05 215.909 993.437C171.634 746.617 142.759 479.46 206.379 233.43C225.782 158.398 266.556 60.9377 336.437 20.8877C387.837 -8.57126 460.986 -2.06826 515.886 13.3107C713.116 74.0417 885.086 229.599 1021.53 379.011C1039.64 398.846 1084.97 448.789 1096.47 469.509L1097.92 472.169L1103.02 471.27C1180.23 359.197 1292.64 304.677 1427.8 297.276C1582.29 288.816 1725.07 343.597 1812.32 475.599Z" fill="#F6DBBB"/>
<path d="M634.076 2598.94C626.066 2540.89 617.676 2482.9 608.896 2424.97C603.616 2389.72 595.706 2347.43 595.816 2312.17C595.866 2297.3 606.286 2276.56 615.486 2264.75C630.116 2246.02 651.606 2233.88 675.206 2231.02C692.476 2228.93 730.306 2229.86 748.826 2229.87L884.666 2229.99L1325.66 2229.9L1931.18 2229.95L2125.83 2229.92C2155.61 2229.88 2204.97 2228.43 2233.38 2230.55C2252.35 2232.1 2270.34 2239.61 2284.77 2252.01C2333.41 2293.64 2312.9 2357.45 2304.86 2412.25L2277.06 2598.91C2276.23 2600.43 2240.66 2855.54 2238.62 2875.53C2226.15 2939.92 2221.48 3013.76 2210.37 3078.39C2206.54 3091.26 2203.17 3105.74 2194.41 3116.08C2212 3129.09 2226.92 3140.96 2223.56 3167.05C2222.1 3178.32 2212.58 3185.34 2203.88 3191.57C2163.06 3198.52 2100.22 3196 2057.11 3196L1825.49 3196.02L970.726 3195.95C934.436 3195.98 727.356 3200.88 709.976 3192.03C695.626 3184.72 691.386 3171.24 686.606 3157.11C686.706 3156.81 689.656 3148.98 689.696 3148.75C692.636 3131 710.036 3125.39 717.676 3114.37C707.216 3102.84 705.586 3093 701.846 3078.24C698.196 3061.85 694.886 3032.09 692.446 3014.49C686.396 2967.91 679.916 2921.39 673.006 2874.92C672.066 2864.16 635.846 2602.32 634.076 2598.94Z" fill="#483C51"/>
<path d="M717.676 3114.37C725.546 3117.74 730.226 3117.59 738.746 3117.56C859.596 3117.12 980.576 3117.13 1101.44 3117.13L1850.32 3117.26L2086.61 3117.25C2100.87 3117.29 2185.24 3118.54 2194.41 3116.08C2212 3129.09 2226.92 3140.96 2223.56 3167.05C2222.1 3178.32 2212.58 3185.34 2203.88 3191.57C2163.06 3198.52 2100.22 3196 2057.11 3196L1825.49 3196.02L970.726 3195.95C934.436 3195.98 727.356 3200.88 709.976 3192.03C695.626 3184.72 691.386 3171.24 686.606 3157.11C686.706 3156.81 689.656 3148.98 689.696 3148.75C692.636 3131 710.036 3125.39 717.676 3114.37Z" fill="#31293A"/>
<path d="M1441.14 2566.3C1522.98 2557.02 1596.74 2616.12 1605.53 2698.01C1614.31 2779.91 1554.76 2853.31 1472.81 2861.59C1391.57 2869.79 1318.94 2810.87 1310.24 2729.68C1301.53 2648.49 1360.01 2575.51 1441.14 2566.3Z" fill="#31293A"/>
<path d="M229.725 1071.52C232.051 1061.57 218.351 1007.05 215.909 993.437C171.634 746.617 142.759 479.46 206.379 233.43C225.782 158.398 266.556 60.9376 336.437 20.8876C387.837 -8.57136 460.986 -2.06836 515.886 13.3106C713.116 74.0416 885.086 229.599 1021.53 379.011C1039.64 398.846 1084.97 448.789 1096.47 469.509L1097.92 472.169L1103.02 471.27C1098.81 480.299 1094.39 489.5 1090.29 498.558C1038.42 504.711 955.046 519.204 904.446 533.125C682.046 587.387 529.336 689.887 389.553 871.807C352.437 920.627 319.881 972.757 292.293 1027.53C281.344 1049.19 268.395 1082.23 258.162 1100.65C250.121 1093.25 234.758 1080.2 229.725 1071.52Z" fill="#4E382D"/>
<path d="M389.553 871.807C383.409 861.447 377.016 823.377 374.487 809.667C353.894 698.087 340.072 578.527 346.616 464.741C350.691 393.89 365.57 268.744 421.336 219.377C438.856 203.863 466.246 195.582 490.036 199.226C604.626 216.779 727.156 338.182 802.466 421.204C832.186 453.972 857.896 490.095 884.636 524.686C892.146 534.397 890.316 531.868 904.446 533.125C682.046 587.387 529.336 689.887 389.553 871.807Z" fill="#715345"/>
<path d="M1812.32 475.599L1816.34 474.751C1839.92 436.506 1892.78 381.984 1925.09 348.042C2014.62 253.995 2115.76 167.219 2225.79 98.0147C2321.01 38.6817 2484.32 -42.7283 2590.84 26.5817C2665.62 75.2387 2702.89 196.403 2720.07 280.652C2754.37 455.955 2743.87 648.097 2721.78 824.607C2714.01 886.067 2703.92 947.197 2691.52 1007.9C2689.55 1017.46 2678.32 1063.8 2680.16 1069.54C2676.04 1082.95 2663.16 1091.91 2652.43 1101.52C2618.87 1017.93 2573.82 939.417 2518.59 868.267C2496.49 836.547 2461.78 798.217 2434.61 770.627C2315.03 649.187 2184.7 576.417 2019.64 535.763C1962.69 521.909 1879.48 503.954 1821.48 498.614L1812.32 475.599Z" fill="#4E382D"/>
<path d="M2019.64 535.763C2035.09 529.101 2080.43 459.63 2095.75 441.362C2160.67 363.909 2356.37 160.509 2467.96 204.84C2498.75 217.069 2518.92 246.65 2530.81 276.34C2592.7 430.965 2562.49 709.947 2518.59 868.267C2496.49 836.547 2461.78 798.217 2434.61 770.627C2315.03 649.187 2184.7 576.417 2019.64 535.763Z" fill="#715345"/>
<path d="M182.964 2682.78C261.638 2537.7 421.886 2496.05 569.496 2561.13C582.946 2567.06 625.976 2597.97 634.076 2598.94C635.846 2602.32 672.066 2864.16 673.006 2874.92C679.916 2921.39 686.396 2967.91 692.446 3014.49C694.886 3032.09 698.196 3061.85 701.846 3078.24C688.816 3080.83 664.086 3081.74 649.976 3083.07C572.866 3090.31 454.816 3086.18 382.478 3059.86C243.061 3022.18 141.428 2893.02 164.37 2745.67C167.699 2724.29 179.45 2702.55 182.964 2682.78Z" fill="#715345"/>
<path d="M382.478 3059.86C393.227 3058.91 391.113 3045.75 395.121 3035.27C438.736 2921.16 553.385 2856.71 673.005 2874.92C679.915 2921.39 686.396 2967.91 692.446 3014.49C694.886 3032.09 698.196 3061.85 701.846 3078.24C688.816 3080.83 664.086 3081.74 649.976 3083.07C572.866 3090.31 454.816 3086.18 382.478 3059.86Z" fill="#4E382D"/>
<path d="M2277.06 2598.91C2284.21 2599.86 2296.86 2588.15 2303.88 2583.51C2319.07 2573.55 2335.11 2564.94 2351.8 2557.77C2475.25 2504.55 2617.31 2531.24 2701.25 2639.44C2711.79 2653.04 2720.12 2667.93 2728.71 2682.81C2730.94 2700.55 2743.26 2724.81 2746.18 2745.69C2767.43 2897.69 2670.13 3018.46 2527.42 3059.93C2436.38 3093.19 2305.48 3089.18 2210.37 3078.39C2221.48 3013.76 2226.15 2939.92 2238.62 2875.53C2240.66 2855.54 2276.23 2600.43 2277.06 2598.91Z" fill="#715345"/>
<path d="M2238.62 2875.53C2372.89 2856.95 2485.22 2928.29 2523.26 3058.86L2527.42 3059.93C2436.38 3093.19 2305.48 3089.18 2210.37 3078.39C2221.48 3013.76 2226.15 2939.92 2238.62 2875.53Z" fill="#4E382D"/>
<path d="M479.106 1756.59C487.576 1757.55 489.825 1759.44 495.615 1756C496.435 1748.17 491.706 1744.79 488.256 1738.2C392.848 1552.16 517.486 1354.54 661.496 1236.45C746.046 1167.12 828.865 1129.87 920.115 1076.97C1115.78 963.557 1301.67 868.117 1535.07 894.717C1703.84 913.947 1845 990.207 1989.97 1074.41C2124.39 1148.88 2244.84 1207.31 2344.57 1331.48C2413.33 1417.08 2464.33 1526.31 2451.05 1638.82C2447.87 1664.15 2441.58 1689 2432.32 1712.79C2425.98 1729.13 2409.32 1747.49 2410.24 1760.31C2413.76 1761.02 2415.5 1761.43 2419.08 1761.76C2437.94 1755.68 2557.92 1726.6 2571.74 1733.5C2576.59 1735.93 2580.24 1740.15 2581.76 1745.37C2583.31 1750.69 2582.56 1754.94 2580.51 1760.02C2566.88 1773.3 2528.87 1778.12 2509.31 1782.11L2403.95 1803.61C2397.08 1805.03 2370.31 1810.18 2365.83 1812.43C2244.05 1929.51 2116.62 1956.34 1966.13 2017.87C1919.08 2037.1 1865.13 2068.33 1818.6 2091.37C1700.15 2150 1586.52 2183.37 1453.62 2182.42C1323.79 2181.49 1209.26 2147.58 1093.23 2090.42C1042.73 2065.53 991.486 2035.87 939.596 2014.85C792.196 1955.16 651.856 1925.04 536.226 1808.22C511.956 1803.46 339.64 1772.63 331.373 1762.55C327.992 1758.42 326.369 1753.48 326.949 1748.14C327.496 1743.1 329.959 1738.39 333.985 1735.27C337.795 1732.38 342.461 1730.84 347.246 1730.89C352.136 1730.91 379.517 1736.6 386.039 1737.85C417.126 1743.78 448.146 1750.03 479.106 1756.59Z" fill="#715345"/>
<path d="M536.226 1808.22C511.956 1803.46 339.64 1772.63 331.373 1762.55C327.992 1758.42 326.369 1753.48 326.949 1748.14C327.496 1743.1 329.959 1738.39 333.985 1735.27C337.795 1732.38 342.461 1730.84 347.246 1730.89C352.136 1730.91 379.517 1736.6 386.039 1737.85C417.126 1743.78 448.146 1750.03 479.106 1756.59C479.786 1756.84 480.476 1757.09 481.166 1757.34C506.396 1766.16 616.726 1777.11 626.056 1795.85C629.106 1801.97 628.586 1807.32 626.616 1813.59C612.406 1831.37 555.366 1815.03 536.226 1808.22Z" fill="#21130C"/>
<path d="M2419.08 1761.76C2437.94 1755.68 2557.92 1726.6 2571.74 1733.5C2576.59 1735.93 2580.24 1740.15 2581.76 1745.37C2583.31 1750.69 2582.56 1754.94 2580.51 1760.02C2566.88 1773.3 2528.87 1778.12 2509.31 1782.11L2403.95 1803.61C2397.08 1805.03 2370.31 1810.18 2365.83 1812.43C2349.26 1813.78 2271.89 1841.52 2283.63 1799.62C2289.63 1778.2 2398.74 1768 2419.08 1761.76Z" fill="#21130C"/>
<path d="M1935.68 1423.74C2056.56 1422.88 2149.81 1517.85 2164.87 1634.78C2172.68 1698.74 2154.6 1763.15 2114.65 1813.7C2076.37 1862.71 2019.94 1894.21 1958.13 1901.08C1896.19 1908.13 1834.02 1889.92 1785.67 1850.57C1734 1809 1707.41 1752.07 1700.4 1687.07C1639.57 1688.5 1577.38 1687.47 1516.36 1687.42L1209.13 1687.23C1204.36 1739.17 1182.81 1788.14 1147.74 1826.75C1101.31 1877.34 1046.86 1899.41 979.295 1902.66C931.175 1903.37 884.045 1889.01 844.495 1861.59C791.515 1824.44 758.115 1769.32 747.445 1705.78C736.435 1640.03 752.246 1572.62 791.336 1518.62C828.076 1468.57 883.296 1435.28 944.706 1426.13C1006.15 1417.33 1068.54 1433.76 1117.68 1471.69C1172.51 1513.47 1199.14 1569.49 1208.13 1636.54L1700.59 1636.3C1723.19 1511.69 1805.95 1428.03 1935.68 1423.74Z" fill="#21130C"/>
<path d="M1308.16 1956.82C1333.67 1960.71 1348.87 1985.82 1371.3 1998.91C1392.96 2012.55 1414.87 2019.89 1440.21 2021.52C1479.3 2024.04 1514.62 2019.99 1547.32 1996.97C1566 1984.26 1580.07 1962.9 1603.25 1958.07C1618.79 1954.84 1627.29 1963.28 1627.8 1978.54C1628.38 1995.67 1623.05 2001.1 1612.24 2013.08C1594.18 2031.9 1572.6 2046.99 1548.73 2057.5C1492.96 2082.22 1429.59 2083.41 1372.93 2060.8C1342.75 2049.1 1302.98 2024.72 1288.7 1994.37C1279.81 1975.46 1290.85 1963.08 1308.16 1956.82Z" fill="#21130C"/>
<path d="M893.326 1180.31C931.035 1175.51 967.415 1180.22 1001.42 1197.29C1036.09 1214.7 1025.41 1259.65 981.826 1244.32C951.246 1233.57 923.275 1227.27 891.165 1233.91L888.385 1234.51C855.705 1245.3 850.905 1258.24 824.005 1273.32C795.945 1289.05 773.465 1261.56 796.035 1233.58C820.485 1203.27 855.646 1186.28 893.326 1180.31Z" fill="#21130C"/>
<path d="M1968.78 1180.36C2002.55 1175.05 2037.14 1180.4 2067.72 1195.68C2088.12 1205.8 2115.64 1223.56 2123.06 1246.31C2126.84 1257.87 2125.25 1275.59 2110.2 1277.56C2089.36 1280.29 2073.01 1261.63 2057.39 1249.84C1979.3 1203.3 1934.8 1260.56 1902.95 1245.36C1897.5 1242.76 1893.01 1237.95 1891.6 1231.95C1889.93 1224.87 1892.65 1216.86 1896.67 1211.02C1910.44 1190.99 1946.14 1183.69 1968.78 1180.36Z" fill="#21130C"/>
<path d="M2296.84 1891.29C2310.77 1891.3 2339.14 1895.91 2354.01 1898L2452.35 1912.11C2491.12 1917.77 2531.75 1922.64 2569.96 1930.66C2590.88 1935.05 2584.39 1958.1 2568.18 1968.36C2557.81 1967.72 2545.91 1966.1 2535.58 1964.46C2456.84 1951.97 2377.35 1942.39 2298.85 1928.77C2278.67 1925.27 2280.32 1903.37 2296.84 1891.29Z" fill="#21130C"/>
<path d="M604.296 1891.67C634.926 1892.07 631.296 1924.62 610.526 1928.89C583.666 1934.41 554.556 1937.97 527.286 1941.89C467.296 1950.1 407.371 1958.81 347.524 1968.02C318.509 1965.11 319.643 1934.01 343.248 1929.4C371.766 1923.83 401.65 1920.15 430.506 1916.03L604.296 1891.67Z" fill="#21130C"/>
<path d="M2291.52 2006.88C2324.69 2010.89 2391.73 2044.18 2427.19 2055.05C2464.71 2070.22 2504.4 2082.65 2541.22 2099.32C2562.4 2108.9 2553.46 2127.69 2536.61 2136.42C2535.89 2136.39 2532.62 2136.31 2532.07 2136.13C2492.26 2123.21 2450.34 2105.89 2411.13 2091.06C2368.56 2074.95 2328.12 2060.16 2286.2 2043.32C2282.47 2041.75 2279.34 2039.3 2277.36 2035.69C2269.82 2021.92 2280.45 2012.19 2291.52 2006.88Z" fill="#21130C"/>
<path d="M609.096 2009.2C618.766 2007.9 628.046 2008.2 632.216 2019.11C634.176 2024.13 633.986 2029.73 631.676 2034.6C625.406 2048 556.176 2069.61 539.386 2075.82L380.633 2135.18C353.216 2140.12 346.815 2107.79 368.335 2098.57C392.982 2088.01 418.866 2078.93 444.036 2069.53C498.826 2048.79 553.846 2028.68 609.096 2009.2Z" fill="#21130C"/>
</svg>
