<svg version="1.1" id="Layer_1" xmlns="http://www.w3.org/2000/svg" xmlns:xlink="http://www.w3.org/1999/xlink" x="0px" y="0px"
	 width="100%" viewBox="73 133 913 306" enable-background="new 0 0 1024 576" xml:space="preserve">
<path fill="#000000" opacity="1.000000" stroke="none" 
	d="
M87.884949,301.162354 
	C91.011002,292.089020 93.898308,283.322906 102.071213,277.806549 
	C103.904099,276.569427 103.397865,274.942719 102.878487,273.342316 
	C100.984627,267.506531 102.145821,261.827179 103.652878,256.147491 
	C104.179672,254.162140 105.081749,252.409622 106.594025,251.025131 
	C114.747589,243.560394 117.922318,234.582001 117.354057,223.333527 
	C116.211388,200.714859 118.883209,178.447891 127.583862,157.286362 
	C131.399567,148.005890 137.687576,145.175507 147.264313,148.006760 
	C158.403809,151.300034 168.391937,157.002121 177.820023,163.629120 
	C180.553223,165.550262 182.762314,165.982803 185.466309,164.156769 
	C197.293304,156.169907 210.277496,151.075516 224.275101,148.369141 
	C251.949814,143.018387 279.026398,144.932281 305.120331,155.720840 
	C310.475586,157.934982 315.335205,161.641312 320.689362,164.230560 
	C323.442963,165.562195 325.411804,165.494690 327.964355,163.739746 
	C337.323486,157.305054 347.147888,151.685837 358.128235,148.416748 
	C369.185883,145.124619 375.504089,148.236038 379.606903,159.132889 
	C384.338593,171.699890 386.152710,184.858887 387.366119,198.149231 
	C388.292755,208.298492 387.860199,218.403275 387.466858,228.560196 
	C387.178467,236.007248 390.560638,243.746735 395.285889,248.252518 
	C400.359314,253.090271 403.015900,257.774078 403.973389,264.157471 
	C404.455383,267.370605 403.859985,270.490051 402.955658,273.522034 
	C402.421234,275.313721 402.314331,276.754272 403.978149,277.929871 
	C414.044006,285.041962 417.123108,295.991882 419.715332,307.084869 
	C424.313995,326.764069 422.041412,345.757019 413.306183,363.961884 
	C407.454437,376.157440 397.777649,383.226715 384.381592,385.108459 
	C382.361542,385.392242 380.566803,385.539856 379.312317,387.582916 
	C369.815247,403.049438 355.101624,411.468994 338.564178,417.232941 
	C321.316589,423.244415 303.397491,425.774841 285.270111,427.400543 
	C268.795349,428.878021 252.305832,428.743896 235.847778,428.149384 
	C212.128647,427.292603 188.765076,423.752655 166.498260,415.091339 
	C150.441986,408.845764 136.874542,399.237183 127.902451,384.060303 
	C126.925613,382.407898 125.843353,381.239471 123.702919,381.030243 
	C98.030403,378.520142 89.748924,363.912262 85.652893,343.537750 
	C82.806122,329.377289 84.116417,315.397766 87.884949,301.162354 
M171.204865,410.241180 
	C183.706238,415.099335 196.772736,417.856689 209.980560,419.500305 
	C244.033752,423.737976 278.086212,423.462036 311.969727,417.634308 
	C329.334961,414.647644 346.088470,409.764130 360.547302,399.113586 
	C365.696686,395.320465 370.360077,390.971924 373.633148,385.161987 
	C370.411285,383.809814 367.725189,383.136780 365.581360,381.670807 
	C362.734253,379.723877 360.811951,380.105072 358.159760,382.189056 
	C350.375122,388.306000 341.628937,392.786652 332.237976,395.947601 
	C326.384094,397.917999 319.745270,398.344879 316.409637,404.930634 
	C315.832977,406.069122 314.038208,406.718109 312.683044,407.312714 
	C306.815765,409.886902 300.595947,411.074738 294.240479,411.260040 
	C287.167816,411.466248 282.021942,407.388855 280.805176,401.046631 
	C279.397247,393.708008 282.225708,387.876282 288.846832,385.107880 
	C294.585175,382.708588 300.614105,381.617188 306.875000,381.607269 
	C310.707672,381.601166 314.197021,382.171204 316.867645,385.159393 
	C318.456696,386.937347 320.279022,386.818451 322.344086,386.241241 
	C333.423096,383.144257 343.329987,377.877411 352.216705,370.573822 
	C353.966858,369.135468 354.300049,367.992462 353.328186,365.958496 
	C344.044464,346.528900 342.644196,326.281738 347.803864,305.584778 
	C350.945679,292.982147 355.547180,281.015167 367.338165,273.616150 
	C370.177490,271.834442 368.633148,269.960510 367.770996,268.065308 
	C359.603760,250.111023 347.136993,235.892151 330.308838,225.636124 
	C327.045258,223.647141 326.536224,221.795181 327.857269,218.367554 
	C332.323273,206.779633 338.046173,195.932465 345.772003,186.184479 
	C349.116943,181.964005 353.022522,178.313965 357.844269,175.872620 
	C362.199799,173.667297 365.170654,174.940048 366.945831,179.489792 
	C367.547607,181.032166 367.961945,182.662323 368.316772,184.284134 
	C373.108124,206.183136 372.148987,227.921524 366.534393,249.547104 
	C366.004456,251.588394 364.653015,253.727417 365.712952,255.848404 
	C368.049622,260.524231 370.627533,265.079529 373.254974,269.958740 
	C373.795227,269.096252 374.234558,268.704651 374.285706,268.267609 
	C375.326965,259.364624 374.001221,249.985077 379.641968,242.011475 
	C379.806580,241.778793 379.684143,241.355728 379.733917,241.027252 
	C382.215179,224.639542 382.526184,208.205185 380.657623,191.742538 
	C379.435242,180.973129 377.661194,170.298904 373.631531,160.159958 
	C371.157379,153.934814 367.347931,152.043381 360.952209,153.893799 
	C357.608093,154.861328 354.301025,156.095398 351.153900,157.582840 
	C329.255402,167.932632 310.813416,182.735275 295.354340,201.311569 
	C293.257904,203.830750 291.460846,205.789551 287.450592,204.707092 
	C263.937073,198.360229 240.365738,198.813538 216.860199,204.921295 
	C214.137100,205.628876 212.325516,205.148300 210.451965,202.750778 
	C201.277786,191.010895 190.721268,180.622559 178.716354,171.770081 
	C168.621094,164.325790 158.019135,157.741974 145.912735,154.025406 
	C139.055908,151.920425 135.488281,153.587082 132.826736,160.101700 
	C131.445450,163.482635 130.351990,166.995148 129.331009,170.507080 
	C122.576912,193.739502 121.873497,217.450943 124.545830,241.271835 
	C125.565475,250.360794 127.242691,259.479950 130.410690,268.912598 
	C133.103928,264.165527 135.385559,260.120331 137.692535,256.089661 
	C138.571289,254.554352 138.670792,253.041321 138.184235,251.305161 
	C133.780167,235.590057 132.671402,219.544708 133.726776,203.328613 
	C134.235397,195.513504 135.489441,187.783081 137.787476,180.279449 
	C139.459503,174.819931 142.697723,173.595108 147.735809,176.233719 
	C150.126953,177.486069 152.129364,179.238205 153.999268,181.153931 
	C164.696960,192.113800 171.564377,205.308487 176.611023,219.607285 
	C177.538055,222.233902 176.695328,223.623749 174.548828,224.918900 
	C168.970795,228.284592 163.705795,232.112030 159.068283,236.694565 
	C131.708908,263.729553 120.889893,297.212708 121.075829,334.895813 
	C121.151787,350.290924 124.560616,364.987244 131.762222,378.616699 
	C140.163727,394.516998 154.079224,403.828644 171.204865,410.241180 
M226.230820,196.523911 
	C245.944382,192.795334 265.570160,193.303864 285.123444,197.704773 
	C286.970459,198.120499 288.860413,199.387024 290.669739,197.394501 
	C295.338684,192.252838 300.075043,187.172363 304.793762,182.057343 
	C283.446014,166.393478 215.482971,166.459732 200.455490,182.346481 
	C203.134079,185.216415 206.406311,187.760712 208.412979,191.071960 
	C212.636368,198.041077 218.086563,199.776840 226.230820,196.523911 
M365.575317,214.308578 
	C364.992004,203.267334 364.907562,192.151627 361.269531,181.549683 
	C358.307861,181.645264 356.728394,183.226379 355.244507,184.716995 
	C345.428741,194.577377 338.798340,206.412796 333.863434,219.315979 
	C332.803467,222.087433 334.211090,223.256744 336.212280,224.494186 
	C343.065918,228.732071 348.997284,234.086823 354.481842,239.943619 
	C356.587555,242.192230 358.512482,244.610123 360.897980,247.391907 
	C364.409607,236.425018 364.607086,225.766830 365.575317,214.308578 
M167.813873,212.612869 
	C162.266678,200.515732 155.665558,189.231873 143.674164,180.339874 
	C137.683151,203.399094 138.111679,225.026169 142.968002,246.816696 
	C145.162354,246.469269 145.659470,245.083572 146.425262,244.064987 
	C152.196976,236.387756 159.290741,230.087021 167.234818,224.830643 
	C170.571854,222.622604 171.319107,220.410400 169.625305,217.012177 
	C169.033188,215.824234 168.611938,214.551102 167.813873,212.612869 
M377.227783,324.678802 
	C377.256836,328.673798 377.313324,332.668854 377.309174,336.663818 
	C377.300354,345.148804 380.767548,352.566498 385.345886,359.246399 
	C390.990814,367.482574 401.980804,364.828583 407.023987,354.409790 
	C397.576111,354.540131 393.889221,351.844666 391.145233,342.313782 
	C388.317383,332.491547 388.338593,322.619568 391.449493,312.841248 
	C393.905914,305.120087 397.494904,298.572693 407.563843,299.242188 
	C405.944244,293.977417 402.944244,290.534088 398.094727,289.433563 
	C392.929932,288.261444 389.020569,290.997559 386.198456,295.063843 
	C380.235016,303.656281 377.815186,313.419464 377.227783,324.678802 
M399.360687,327.563843 
	C399.121613,330.419769 399.640076,333.203979 400.420471,335.907867 
	C401.213287,338.654602 402.344940,341.837738 405.814667,341.338806 
	C409.116760,340.863953 409.534729,337.682831 409.868622,334.509949 
	C407.842224,335.257385 407.537262,338.569733 405.035461,337.298828 
	C402.823242,336.175049 402.671204,333.854065 402.650299,331.662903 
	C402.623413,328.844360 402.574524,326.018433 402.742889,323.208099 
	C402.872314,321.048096 403.209351,318.622833 405.428772,317.682373 
	C407.930878,316.622162 408.150116,319.954590 410.425964,320.993073 
	C409.691040,317.643677 409.768433,314.134216 406.095215,313.544891 
	C402.133972,312.909393 401.385864,316.545624 400.588562,319.360168 
	C399.917572,321.728912 399.754395,324.241486 399.360687,327.563843 
z"/>
<path fill="#000000" opacity="1.000000" stroke="none" 
	d="
M930.969727,294.232910 
	C917.179443,292.354156 903.701782,291.744659 890.378967,289.569733 
	C872.124207,286.589661 860.874084,273.175598 861.177124,252.615524 
	C861.310181,243.590454 862.673401,234.661453 868.325073,227.057907 
	C875.960815,216.784836 886.599670,212.210770 898.976501,211.817154 
	C911.791260,211.409607 924.633545,211.532333 937.456421,211.791382 
	C958.450073,212.215546 973.571289,227.776428 973.391907,248.118362 
	C973.356873,252.090683 971.995422,253.410355 968.136902,253.251389 
	C962.482117,253.018402 956.809998,253.133713 951.146851,253.213425 
	C948.406006,253.251999 947.100891,252.320282 946.433838,249.394348 
	C944.560913,241.178024 941.071472,238.188889 933.018372,238.019547 
	C922.528870,237.798950 912.023193,237.760971 901.538269,238.086365 
	C892.545898,238.365417 887.918884,243.776901 888.293213,252.688522 
	C888.581970,259.564667 892.759644,263.745850 900.588074,264.626953 
	C913.313599,266.059174 926.059143,267.312500 938.789429,268.703918 
	C941.761597,269.028778 944.750977,269.414276 947.656433,270.095947 
	C965.512146,274.285309 974.480408,285.271332 975.434692,303.612030 
	C976.124939,316.876648 974.310730,329.245758 964.003235,338.894958 
	C956.537292,345.884064 947.347107,348.516724 937.450806,348.732941 
	C923.138733,349.045685 908.789856,349.755737 894.512756,348.357361 
	C873.979980,346.346344 860.224060,329.617035 861.605347,309.047699 
	C861.790039,306.297058 862.807434,305.108521 865.487671,305.112213 
	C871.484924,305.120483 877.482849,305.123413 883.479248,305.039856 
	C886.319336,305.000275 887.550720,306.233734 888.053284,309.077942 
	C889.793579,318.926605 894.435913,322.684174 904.435242,322.702026 
	C913.764648,322.718658 923.094177,322.725830 932.423523,322.699768 
	C942.271729,322.672302 948.117493,317.914703 948.643005,309.558929 
	C949.204773,300.627838 944.182922,295.452240 933.909973,294.390717 
	C933.082764,294.305267 932.247070,294.300659 930.969727,294.232910 
z"/>
<path fill="#000000" opacity="1.000000" stroke="none" 
	d="
M562.312012,300.453552 
	C563.032227,298.575745 564.333191,298.210144 565.693237,298.194305 
	C572.523865,298.114777 579.355408,298.059509 586.186340,298.081970 
	C589.701111,298.093536 590.036194,300.499756 589.907288,303.268219 
	C588.640442,330.465668 571.606140,347.777985 544.052246,348.754425 
	C528.422485,349.308319 512.732422,349.571869 497.089691,348.391357 
	C476.391907,346.829346 460.512543,332.287292 456.749420,311.585327 
	C454.823853,300.992218 455.792053,290.306519 455.808228,279.670654 
	C455.825409,268.387909 454.665466,257.037292 457.591309,245.853683 
	C462.868195,225.683609 479.559662,212.126617 500.464813,211.785965 
	C515.792786,211.536194 531.155640,211.173584 546.454529,211.892746 
	C572.851807,213.133652 588.574341,230.344055 589.987244,256.736023 
	C590.136902,259.532013 589.026367,261.158508 585.957825,261.133484 
	C579.458740,261.080414 572.958435,261.075745 566.459717,261.151184 
	C563.612183,261.184235 562.357849,259.951691 561.857971,257.120911 
	C559.575256,244.192368 553.454590,239.121017 540.386108,239.104767 
	C528.720276,239.090256 517.054077,239.060791 505.388763,239.142975 
	C491.752014,239.239029 483.391754,247.649506 483.296753,261.407959 
	C483.210449,273.906433 483.211548,286.406494 483.300629,298.904968 
	C483.396454,312.351807 491.409027,321.029510 504.836121,321.445709 
	C517.313171,321.832489 529.823303,321.710266 542.302429,321.304901 
	C553.613892,320.937500 560.234314,313.785461 562.312012,300.453552 
z"/>
<path fill="#000000" opacity="1.000000" stroke="none" 
	d="
M630.938354,269.024292 
	C637.260864,254.656113 643.458496,240.647217 649.576660,226.603683 
	C654.370544,215.599884 663.067688,210.205399 674.701660,210.083801 
	C686.285889,209.962708 694.906494,215.650101 699.542236,226.264374 
	C716.401184,264.866394 733.029602,303.569153 749.718994,342.245117 
	C750.419617,343.868927 751.609863,345.467621 750.389404,348.132324 
	C741.602112,348.132324 732.501892,348.228210 723.406006,348.073334 
	C720.709473,348.027435 720.340576,345.300964 719.504944,343.396515 
	C706.256470,313.203125 693.050354,282.991119 679.821655,252.789093 
	C678.101501,248.862030 676.308899,244.966721 673.997559,239.829041 
	C669.202942,250.783630 664.894531,260.606018 660.603394,270.435913 
	C649.944641,294.852448 639.237976,319.248444 628.703369,343.718475 
	C627.229004,347.143158 625.256714,348.456268 621.540527,348.343079 
	C613.583679,348.100739 605.614258,348.268799 596.115234,348.268799 
	C607.992188,321.235138 619.385681,295.301880 630.938354,269.024292 
z"/>
<path fill="#000000" opacity="1.000000" stroke="none" 
	d="
M750.013733,239.144943 
	C736.677673,239.156845 736.677612,239.156845 736.675476,226.574158 
	C736.675110,224.574615 736.674194,222.575089 736.675964,220.575546 
	C736.683533,212.019089 736.683838,211.974350 745.010925,211.969666 
	C777.336670,211.951477 809.662476,211.951675 841.988220,211.976120 
	C848.440735,211.981003 848.408691,212.044449 848.514709,218.610352 
	C848.595398,223.604980 848.708252,228.600800 848.923462,233.591049 
	C849.094971,237.568542 847.512695,239.270004 843.348083,239.191574 
	C832.854248,238.993973 822.350708,239.277359 811.858521,239.039871 
	C807.429626,238.939606 806.216736,240.562195 806.238586,244.878662 
	C806.401855,277.203674 806.237854,309.530457 806.441467,341.855011 
	C806.472961,346.853973 805.120117,348.782227 799.970459,348.363495 
	C794.838623,347.946198 789.634277,348.039459 784.485291,348.328857 
	C780.112976,348.574677 778.678040,346.977570 778.714172,342.594696 
	C778.890076,321.267761 778.794495,299.938568 778.794006,278.610199 
	C778.793701,267.779388 778.800537,256.948608 778.786255,246.117798 
	C778.777039,239.127762 778.762451,239.123047 772.006348,239.124268 
	C764.841309,239.125580 757.676270,239.137131 750.013733,239.144943 
z"/>
<path fill="#000000" opacity="1.000000" stroke="none" 
	d="
M656.658447,332.962708 
	C662.159363,320.636383 667.708862,308.661926 673.258362,296.687469 
	C673.817566,296.646271 674.376831,296.605042 674.936035,296.563843 
	C680.779114,308.714966 686.800781,320.783112 692.133850,334.451263 
	C679.561096,333.669312 668.106995,335.877289 656.658447,332.962708 
z"/>
<path fill="#000000" opacity="1.000000" stroke="none" 
	d="
M958.046814,398.965454 
	C958.030579,397.187836 958.083313,395.849487 957.978271,394.523682 
	C957.845337,392.846649 957.705750,390.887329 955.422485,390.961243 
	C953.413940,391.026245 952.662292,392.766479 952.507263,394.481445 
	C952.282776,396.964630 952.375000,399.475098 952.281494,401.972015 
	C952.222595,403.546814 951.950134,405.030762 949.898621,405.125061 
	C948.008423,405.211945 947.067871,404.124756 947.042786,402.408691 
	C946.977112,397.914337 946.991211,393.416473 947.098267,388.922974 
	C947.148743,386.806335 948.624329,386.059937 950.530334,386.241638 
	C952.033447,386.384918 953.513123,386.080750 954.953186,386.098450 
	C959.594421,386.155334 964.145264,386.947601 968.890625,386.007202 
	C971.602173,385.469879 973.678772,387.930969 974.430298,390.826447 
	C975.410339,394.602295 975.129883,398.439056 974.897156,402.261169 
	C974.780090,404.182617 973.814026,405.368225 971.683289,405.201111 
	C969.718811,405.046997 969.235535,403.651001 969.196838,402.063843 
	C969.132202,399.412598 969.333130,396.750946 969.183044,394.107269 
	C969.098450,392.618042 968.627014,390.927277 966.652100,390.975494 
	C964.874573,391.018860 963.970520,392.498474 963.806702,393.996552 
	C963.555969,396.289520 963.876099,398.641357 963.681702,400.945221 
	C963.526978,402.779022 964.006653,405.311737 960.870117,405.243439 
	C957.885437,405.178497 958.175049,402.882111 958.049500,400.909912 
	C958.017761,400.411987 958.045349,399.910248 958.046814,398.965454 
z"/>
<path fill="#000000" opacity="1.000000" stroke="none" 
	d="
M674.450378,402.259949 
	C674.253906,409.349426 672.280762,411.976837 666.748901,412.919220 
	C662.088196,413.713135 658.931824,411.906250 657.084473,407.333130 
	C660.101562,402.681641 665.719849,412.201385 668.579285,405.473450 
	C666.923584,404.278076 665.462524,405.356140 664.020996,405.198547 
	C658.831909,404.631287 655.037659,399.575867 655.789246,394.051147 
	C656.559814,388.386719 660.825317,385.118225 666.297668,385.998779 
	C674.999756,387.399078 674.994568,387.398804 674.567078,396.884399 
	C674.492249,398.543945 674.481995,400.206390 674.450378,402.259949 
M662.773010,391.560547 
	C660.542053,395.948395 661.033569,399.020599 664.145996,399.782379 
	C665.879456,400.206696 667.490906,399.867767 668.562622,398.288055 
	C669.697937,396.614563 669.667419,394.800018 668.728516,393.082611 
	C667.542297,390.912720 665.816650,389.938904 662.773010,391.560547 
z"/>
<path fill="#000000" opacity="1.000000" stroke="none" 
	d="
M859.347046,388.385132 
	C858.540710,383.221252 860.899658,380.251129 865.258362,379.103943 
	C869.486389,377.991150 873.590393,378.482483 876.390991,382.490173 
	C877.260071,383.733826 878.032837,385.353577 876.725464,386.579956 
	C875.357056,387.863617 873.669739,387.513153 872.255432,386.244476 
	C871.401062,385.478088 870.626831,384.548004 869.640808,384.019165 
	C867.942261,383.108124 866.202209,383.565887 865.312073,385.187317 
	C864.165527,387.275940 865.807129,388.146393 867.486694,388.743317 
	C869.675476,389.521240 872.017578,389.997375 874.046082,391.071228 
	C879.492920,393.954773 879.742554,400.625946 874.673523,404.081573 
	C870.365906,407.018097 862.870300,406.091064 860.152954,402.184875 
	C859.232666,400.862000 857.963074,399.169250 859.431519,397.690887 
	C861.001343,396.110474 862.716431,396.809418 864.173584,398.363892 
	C864.946899,399.188873 865.867371,400.112823 866.891968,400.416412 
	C869.073669,401.062897 871.497498,401.037598 872.290527,398.405121 
	C873.030884,395.947205 870.736206,395.377380 869.031189,394.893890 
	C865.197693,393.806854 861.076111,393.275208 859.347046,388.385132 
z"/>
<path fill="#000000" opacity="1.000000" stroke="none" 
	d="
M631.714844,402.570526 
	C634.277527,395.689697 636.770569,389.180573 639.224182,382.656586 
	C639.963501,380.690826 640.850281,379.022614 643.332275,378.990265 
	C645.770996,378.958496 646.807434,380.408813 647.547729,382.469635 
	C650.159668,389.740356 653.277832,396.848145 655.020447,404.375671 
	C652.134094,405.820465 650.605835,405.188110 649.253845,402.846619 
	C646.327087,397.777588 640.480774,397.832458 637.345398,402.809937 
	C635.249451,406.137360 633.577759,406.174377 631.714844,402.570526 
M644.051941,388.529449 
	C643.854187,388.283264 643.667236,388.026062 643.443665,387.806091 
	C643.418335,387.781158 643.108948,387.936127 643.062378,388.057861 
	C642.381409,389.836609 641.052795,391.442291 641.556396,393.839783 
	C646.555176,394.487732 645.314758,391.686707 644.051941,388.529449 
z"/>
<path fill="#000000" opacity="1.000000" stroke="none" 
	d="
M471.818237,400.643677 
	C473.951538,400.399261 475.310089,399.454224 476.277344,398.040588 
	C478.023712,395.488312 479.975403,395.795868 482.150177,397.258301 
	C480.462738,404.468262 473.832245,407.695831 466.722473,404.930725 
	C460.863312,402.652039 457.650543,395.013580 459.650909,388.117889 
	C461.624359,381.315155 467.481262,377.583069 474.093964,378.942200 
	C476.984924,379.536377 479.356873,381.012970 480.993225,383.476227 
	C481.794769,384.682892 482.918884,386.205322 481.528107,387.503357 
	C480.175812,388.765564 478.231232,388.663544 477.077576,387.208374 
	C474.666229,384.166779 471.702026,383.011963 468.358673,384.908142 
	C464.552307,387.066833 464.869171,391.043671 465.272217,394.719208 
	C465.665253,398.303406 467.701904,400.436462 471.818237,400.643677 
z"/>
<path fill="#000000" opacity="1.000000" stroke="none" 
	d="
M529.193481,397.501740 
	C527.440552,398.000153 527.611633,398.878784 528.424316,399.732361 
	C529.597534,400.964722 531.094177,400.995331 532.572327,400.432037 
	C534.591553,399.662567 537.444702,397.144409 538.378357,400.326508 
	C539.318054,403.529266 535.819275,404.815979 532.951172,405.413116 
	C527.600098,406.527130 523.229309,403.899139 521.817566,398.805969 
	C520.297180,393.320801 522.913330,387.976013 527.920654,386.337128 
	C532.506592,384.836151 537.148376,386.913208 539.011292,391.299805 
	C540.894470,395.734070 539.873657,397.275421 534.977844,397.377960 
	C533.154785,397.416168 531.331482,397.438843 529.193481,397.501740 
z"/>
<path fill="#000000" opacity="1.000000" stroke="none" 
	d="
M823.661987,397.802521 
	C824.439514,401.055786 825.482727,401.627197 828.510071,400.213013 
	C830.339172,399.358612 832.482910,397.678741 833.566345,400.179108 
	C834.581726,402.522125 832.071716,403.976868 830.167542,404.903412 
	C825.402588,407.221863 819.686279,405.028381 817.587097,400.252533 
	C815.230713,394.891479 817.271545,388.754242 822.114746,386.637054 
	C827.119873,384.449097 832.357605,386.630371 834.364868,391.738647 
	C836.019043,395.948059 834.905029,397.539215 830.399536,397.500610 
	C828.247192,397.482208 826.093933,397.578949 823.661987,397.802521 
z"/>
<path fill="#000000" opacity="1.000000" stroke="none" 
	d="
M678.734253,389.949036 
	C681.601501,386.297760 684.990723,385.019379 689.105652,386.197906 
	C692.440186,387.152893 694.351990,389.570953 695.148010,392.872223 
	C695.871521,395.872559 695.224304,397.702850 691.532837,397.462799 
	C688.810181,397.285736 685.990051,396.953918 682.954651,397.982147 
	C684.597168,401.765289 687.000549,401.197266 689.459412,399.835968 
	C691.186829,398.879578 693.125732,397.976196 694.099243,400.184784 
	C694.979736,402.182281 693.056091,403.490234 691.451172,404.386719 
	C687.970093,406.331238 684.386963,406.295288 681.089478,404.077271 
	C677.740723,401.824738 676.641541,398.374603 677.120667,394.491547 
	C677.298401,393.050995 678.034119,391.679352 678.734253,389.949036 
z"/>
<path fill="#000000" opacity="1.000000" stroke="none" 
	d="
M937.750610,400.607574 
	C939.933350,399.481628 941.677673,397.832001 943.927185,399.656036 
	C943.002991,404.632599 938.275940,407.053864 933.097168,405.231476 
	C928.815186,403.724731 926.237610,399.309937 926.825806,394.490417 
	C927.415894,389.655579 931.077759,385.997620 935.583313,385.742249 
	C940.071045,385.487854 943.904236,388.132477 944.958130,392.344177 
	C945.769531,395.586487 945.513245,397.965332 941.050781,397.526764 
	C938.484009,397.274506 935.779480,396.873383 932.993896,398.073090 
	C933.460510,400.812408 935.356628,400.871643 937.750610,400.607574 
M935.901550,393.497498 
	C936.949036,393.231934 938.234924,393.414978 938.808960,391.756653 
	C937.272766,390.229156 935.513306,389.501984 933.891357,391.432617 
	C932.647583,392.913086 934.155273,393.278595 935.901550,393.497498 
z"/>
<path fill="#000000" opacity="1.000000" stroke="none" 
	d="
M778.010010,385.751709 
	C784.405029,386.866913 786.035828,388.723267 786.234680,394.637817 
	C786.245789,394.969360 786.242188,395.301392 786.245911,395.633179 
	C786.356628,405.497101 785.242615,406.610474 775.480774,405.779663 
	C771.956360,405.479706 769.443420,403.560974 769.329529,399.808899 
	C769.223572,396.320465 771.457153,394.464661 774.705322,393.619873 
	C776.509277,393.150665 778.784241,394.329163 780.272583,391.924866 
	C777.154968,387.276031 773.502319,395.794525 770.275269,391.136139 
	C770.813416,387.157959 774.000061,386.212006 778.010010,385.751709 
M777.875183,397.536285 
	C776.639343,398.033203 774.818237,397.981110 775.365295,400.279449 
	C777.307129,401.191589 779.190918,401.404816 780.205505,399.120422 
	C780.752625,397.888580 779.530518,397.576416 777.875183,397.536285 
z"/>
<path fill="#000000" opacity="1.000000" stroke="none" 
	d="
M582.022766,392.174011 
	C585.286560,386.362122 590.503845,384.346039 595.429443,386.696014 
	C599.842041,388.801239 602.169189,394.299042 600.590027,398.887817 
	C598.786560,404.128357 593.666077,406.778259 588.225830,405.286530 
	C583.082275,403.876160 580.701477,399.089203 582.022766,392.174011 
M592.656494,390.999023 
	C590.124084,390.001373 588.259949,390.966064 587.518616,393.355957 
	C586.827087,395.585327 586.696594,398.050568 588.755981,399.847168 
	C590.179688,401.089172 591.939758,401.149353 593.372437,400.037231 
	C595.652954,398.266998 595.883118,395.833313 594.759216,393.291595 
	C594.438232,392.565521 593.776489,391.990112 592.656494,390.999023 
z"/>
<path fill="#000000" opacity="1.000000" stroke="none" 
	d="
M893.896851,396.830719 
	C892.318054,400.896698 890.910339,404.620880 889.471985,408.333221 
	C888.731384,410.244629 887.691650,411.901642 885.574158,412.567932 
	C884.067017,413.042236 882.567627,413.294586 881.617188,411.665283 
	C880.811646,410.284271 881.311646,409.007477 882.560608,408.213135 
	C885.760193,406.178223 884.964050,403.525513 883.910217,400.756561 
	C882.318237,396.573486 880.754822,392.379425 879.208801,388.179199 
	C879.109070,387.908264 879.261658,387.544525 879.393555,386.342102 
	C886.797668,385.373749 884.732788,393.242523 888.081482,395.791229 
	C891.155579,393.385895 889.633484,388.238800 893.470398,386.357574 
	C894.665833,385.771454 896.082031,385.899567 897.291443,387.459106 
	C896.972107,390.570953 895.060303,393.381866 893.896851,396.830719 
z"/>
<path fill="#000000" opacity="1.000000" stroke="none" 
	d="
M745.071167,395.975464 
	C745.057251,393.510590 744.878845,391.498932 745.073486,389.524017 
	C745.388245,386.331055 745.219299,383.811462 740.925049,384.215576 
	C739.232788,384.374908 738.008362,383.483704 737.980103,381.606934 
	C737.950134,379.620972 739.400818,379.061401 740.981873,379.029877 
	C745.635559,378.936981 750.292053,378.933990 754.946777,378.975037 
	C756.744263,378.990875 758.257690,379.505951 758.217285,381.796173 
	C758.181396,383.828033 756.867981,384.365906 755.226318,384.268097 
	C751.345093,384.037048 750.999390,386.455872 751.048706,389.424011 
	C751.114868,393.413269 751.047180,397.405731 750.976624,401.395782 
	C750.943115,403.292358 750.764954,405.179230 748.138550,405.184418 
	C745.560913,405.189514 745.299866,403.312286 745.169617,401.431213 
	C745.054871,399.774933 745.099731,398.107635 745.071167,395.975464 
z"/>
<path fill="#000000" opacity="1.000000" stroke="none" 
	d="
M487.311646,388.189819 
	C494.181702,383.019043 502.007690,387.301361 503.105469,393.746979 
	C503.820831,397.947144 502.797058,401.761261 498.955750,404.161072 
	C495.216827,406.496979 491.230774,406.390839 487.770782,403.748657 
	C484.140808,400.976715 483.029022,397.128601 484.486877,392.642548 
	C485.013550,391.022034 485.754913,389.594208 487.311646,388.189819 
M489.479431,397.115631 
	C490.235382,399.618622 491.676208,401.234711 494.525604,400.647430 
	C496.584534,400.223053 497.496765,398.691498 497.649261,396.702942 
	C497.868134,393.848999 497.373810,390.934845 494.045288,390.694244 
	C490.474274,390.436157 489.518311,393.302582 489.479431,397.115631 
z"/>
<path fill="#000000" opacity="1.000000" stroke="none" 
	d="
M797.479980,390.275604 
	C797.435913,387.458405 798.434204,386.405579 801.040833,386.298035 
	C813.920898,385.766510 814.987183,386.774048 814.323914,400.098053 
	C814.227966,402.025360 815.248230,405.032104 811.862427,405.038422 
	C808.313049,405.045044 809.197754,401.919556 809.004333,399.784119 
	C808.825378,397.809204 808.950562,395.808716 808.847900,393.824310 
	C808.763123,392.187042 808.067383,390.826111 806.245850,390.761383 
	C804.494141,390.699158 803.467468,391.908417 803.239197,393.513153 
	C802.866699,396.132538 802.698242,398.782440 802.489258,401.423065 
	C802.346191,403.230499 802.633118,405.353363 799.815552,405.155975 
	C797.222473,404.974304 797.246948,402.849976 797.222595,401.087891 
	C797.174683,397.615784 797.366638,394.140350 797.479980,390.275604 
z"/>
<path fill="#000000" opacity="1.000000" stroke="none" 
	d="
M603.166992,403.463043 
	C602.978210,398.706024 602.958923,394.379028 602.875671,390.053223 
	C602.823303,387.331512 604.016052,386.259857 606.800354,386.226776 
	C619.855469,386.071594 620.753845,386.918640 620.314636,400.208557 
	C620.248047,402.223938 620.953857,405.056732 617.636841,405.088318 
	C614.317078,405.119965 615.002258,402.328064 614.896667,400.277802 
	C614.802612,398.450348 614.868164,396.615204 614.811462,394.785095 
	C614.751404,392.845154 614.379456,390.853027 611.971863,390.871948 
	C609.859619,390.888550 608.723755,392.605316 608.491516,394.521942 
	C608.212646,396.823242 608.416504,399.178436 608.276367,401.502197 
	C608.055176,405.171021 606.612061,406.519287 603.166992,403.463043 
z"/>
<path fill="#000000" opacity="1.000000" stroke="none" 
	d="
M701.537781,386.411499 
	C703.232239,386.322968 704.535400,386.215515 705.822937,386.009796 
	C710.584595,385.249115 714.232361,387.535950 714.856140,392.203766 
	C715.291809,395.463623 715.083435,398.816895 715.059631,402.127716 
	C715.047974,403.754059 714.420654,405.097504 712.494263,405.132782 
	C710.242676,405.173981 709.797180,403.619781 709.755493,401.809662 
	C709.698242,399.324463 709.716858,396.836914 709.624023,394.353302 
	C709.545593,392.257477 708.570374,390.766357 706.302002,390.883606 
	C704.360229,390.983948 703.383057,392.349487 703.299438,394.227936 
	C703.188843,396.710205 703.220032,399.198425 703.148438,401.682892 
	C703.097351,403.454834 702.719543,405.067841 700.489502,405.141022 
	C698.239624,405.214844 697.736938,403.683044 697.724426,401.859711 
	C697.696045,397.716827 697.740967,393.573425 697.702148,389.430695 
	C697.679749,387.043793 698.914673,386.172150 701.537781,386.411499 
z"/>
<path fill="#000000" opacity="1.000000" stroke="none" 
	d="
M898.066956,401.647064 
	C898.420776,398.244476 900.275391,398.467865 902.265015,399.582672 
	C903.854675,400.473389 905.295105,401.555359 907.453308,399.834747 
	C904.060425,396.573914 895.887085,397.439545 898.404358,389.820465 
	C899.602295,386.194702 903.175049,385.364746 906.703857,385.872620 
	C909.769714,386.313873 912.529358,387.441589 912.374084,391.208984 
	C909.424683,394.643494 907.000427,388.963074 904.163513,391.006073 
	C904.166870,393.328400 906.128479,392.937897 907.358276,393.331329 
	C911.178467,394.553436 914.178284,396.358429 913.118958,401.080627 
	C912.303955,404.713776 907.824707,406.698700 903.338501,405.590363 
	C901.163208,405.052917 899.319763,404.053223 898.066956,401.647064 
z"/>
<path fill="#000000" opacity="1.000000" stroke="none" 
	d="
M543.768555,388.762085 
	C550.853882,383.774323 557.363403,385.518646 558.419250,392.380707 
	C556.483154,393.783447 554.833923,393.293671 553.099365,391.820648 
	C551.415955,390.391083 549.431458,389.903809 547.896790,392.011169 
	C546.178467,394.370819 545.967712,397.008881 547.761414,399.418823 
	C549.215454,401.372406 551.319397,401.349213 553.016357,399.889496 
	C554.812134,398.344727 556.439514,398.235565 558.627197,399.340973 
	C558.366211,403.272552 555.832642,404.762939 552.584961,405.475616 
	C548.647095,406.339752 545.230835,405.269775 542.957764,401.915466 
	C540.031738,397.597412 540.119690,393.203125 543.768555,388.762085 
z"/>
<path fill="#000000" opacity="1.000000" stroke="none" 
	d="
M563.080872,382.254822 
	C565.175842,380.771027 566.810181,380.836945 567.631714,383.155457 
	C568.167419,384.667236 569.105774,385.583893 570.442749,386.410889 
	C572.227295,387.514709 572.203308,388.846191 570.660156,390.432312 
	C566.891785,394.305603 566.848755,397.375763 570.440186,401.075409 
	C571.350525,402.013214 571.870789,402.919708 571.423096,404.124390 
	C570.919678,405.479065 569.625061,405.417542 568.478455,405.428070 
	C564.630188,405.463318 562.770020,403.531677 562.570923,399.679626 
	C562.392822,396.232361 563.822876,392.414734 560.029297,389.702209 
	C559.007080,388.971344 559.490417,387.146515 560.872009,386.344574 
	C562.368896,385.475586 562.614624,384.038452 563.080872,382.254822 
z"/>
<path fill="#000000" opacity="1.000000" stroke="none" 
	d="
M726.722717,405.086182 
	C721.618774,405.886017 719.670105,403.419250 719.149780,399.091278 
	C718.748962,395.757263 719.200378,392.490997 717.116150,389.142609 
	C715.627747,386.751343 718.724243,383.408661 720.706299,381.795837 
	C723.145996,379.810638 723.505859,383.721619 724.894592,384.625366 
	C729.212158,387.435059 727.505737,389.289917 725.540222,392.648346 
	C724.270569,394.817810 722.879944,398.992035 727.250793,401.222015 
	C728.867004,402.046570 728.446655,403.734283 726.722717,405.086182 
z"/>
<path fill="#000000" opacity="1.000000" stroke="none" 
	d="
M925.678711,404.350586 
	C919.780396,406.199188 917.149719,404.489136 916.782410,398.911499 
	C916.558838,395.516357 916.570496,392.411652 914.483093,389.100159 
	C913.078979,386.872711 916.431885,383.403107 918.664795,381.704041 
	C920.829956,380.056549 921.337708,383.353149 922.670166,384.473572 
	C925.968506,387.246918 927.100159,388.734344 923.053406,392.215210 
	C921.257080,393.760437 920.697449,398.514465 924.426086,400.780396 
	C925.833740,401.635895 926.261414,402.552246 925.678711,404.350586 
z"/>
<path fill="#000000" opacity="1.000000" stroke="none" 
	d="
M842.271973,386.487732 
	C843.794434,386.330841 844.922729,386.072754 846.065491,385.932281 
	C847.404114,385.767670 848.341248,386.357056 848.590820,387.717712 
	C848.813110,388.929047 848.640320,390.402008 847.373962,390.649536 
	C842.195923,391.661835 843.006165,395.635284 842.877014,399.193726 
	C842.846985,400.020355 842.834595,400.850128 842.749451,401.671753 
	C842.549316,403.602814 842.113403,405.366577 839.574036,405.169891 
	C837.302856,404.994019 837.096680,403.262543 837.058350,401.574402 
	C836.975769,397.935120 837.005981,394.293274 836.985229,390.652496 
	C836.966309,387.323883 838.340637,385.622131 842.271973,386.487732 
z"/>
<path fill="#000000" opacity="1.000000" stroke="none" 
	d="
M517.858521,404.856293 
	C514.289062,405.499969 513.869446,403.421844 513.853210,401.075470 
	C513.810852,394.955139 513.801392,388.834442 513.811157,382.713959 
	C513.814148,380.824097 513.955872,378.905212 516.523438,378.836334 
	C519.167664,378.765411 519.384033,380.717621 519.251526,382.593903 
	C518.732056,389.945435 520.583557,397.402924 517.858521,404.856293 
z"/>
<path fill="#000000" opacity="1.000000" stroke="none" 
	d="
M510.756866,383.590698 
	C510.763702,389.303802 510.915527,394.611298 510.815765,399.914001 
	C510.778473,401.897034 511.412933,404.902557 508.309753,405.008453 
	C504.540466,405.137115 505.740173,401.815216 505.682098,399.773071 
	C505.526428,394.301636 505.572937,388.821533 505.674774,383.347351 
	C505.708740,381.520874 505.003754,378.916901 508.127747,378.867981 
	C511.127350,378.821014 510.785553,381.192963 510.756866,383.590698 
z"/>
<path fill="#000000" opacity="1.000000" stroke="none" 
	d="
M761.509827,386.347961 
	C762.231689,386.474060 762.556702,386.531860 762.883301,386.578949 
	C764.939453,386.875366 767.733521,384.244354 768.959290,387.542725 
	C770.245789,391.004852 766.806458,390.827423 764.944458,391.806763 
	C763.407349,392.615173 763.224548,394.123169 763.186340,395.648926 
	C763.136719,397.632446 763.153198,399.618317 763.067200,401.599976 
	C762.992310,403.325592 762.706970,405.030975 760.464478,405.107117 
	C758.212219,405.183655 757.759338,403.596313 757.744568,401.795471 
	C757.710693,397.661835 757.735596,393.527771 757.713257,389.394012 
	C757.700745,387.080322 758.835815,386.066956 761.509827,386.347961 
z"/>
<path fill="#000000" opacity="1.000000" stroke="none" 
	d="
M793.558167,387.021301 
	C794.828857,392.268036 794.193115,397.259521 794.258423,402.229797 
	C794.280396,403.907654 793.577698,405.164215 791.631042,405.123474 
	C789.701904,405.083160 789.040649,403.756897 789.012817,402.131500 
	C788.941772,397.976501 788.903687,393.817078 789.020386,389.664124 
	C789.096436,386.958801 790.404480,385.622406 793.558167,387.021301 
z"/>
<path fill="#000000" opacity="1.000000" stroke="none" 
	d="
M574.158569,403.482880 
	C573.975159,398.584808 573.921692,394.119904 573.899963,389.654846 
	C573.891174,387.851288 574.303162,386.219360 576.553650,386.291473 
	C578.647034,386.358521 579.287964,387.799744 579.282959,389.691376 
	C579.272461,393.661346 579.410400,397.635895 579.262085,401.600098 
	C579.122925,405.320587 577.509521,406.474548 574.158569,403.482880 
z"/>
<path fill="#000000" opacity="1.000000" stroke="none" 
	d="
M791.787109,378.623779 
	C794.064697,379.088715 795.049988,380.248352 794.521057,382.229706 
	C794.153320,383.607056 793.139526,384.502625 791.638733,384.548920 
	C790.313171,384.589844 789.417297,383.782013 789.062500,382.608215 
	C788.426575,380.504425 789.133118,379.049255 791.787109,378.623779 
z"/>
<path fill="#000000" opacity="1.000000" stroke="none" 
	d="
M575.446960,384.201416 
	C573.577271,382.595490 573.234802,380.982788 574.720947,379.360687 
	C575.711426,378.279602 577.061157,378.274872 578.305115,378.951569 
	C579.406982,379.550964 579.895630,380.652435 579.670715,381.837341 
	C579.270569,383.945557 577.932861,384.849213 575.446960,384.201416 
z"/>
<path fill="#000000" opacity="1.000000" stroke="none" 
	d="
M303.619995,349.862427 
	C290.689178,356.264465 280.256439,352.554688 274.320648,339.548981 
	C273.243011,337.187805 271.910370,336.360901 269.416138,336.370300 
	C248.770111,336.447815 228.123520,336.476196 207.477600,336.393219 
	C204.185349,336.380005 202.550690,337.636414 201.159637,340.664001 
	C197.032990,349.645660 187.474060,354.105255 178.470917,351.728424 
	C169.028198,349.235535 162.474869,340.272308 163.249619,330.909607 
	C164.130768,320.260925 171.206116,312.377563 181.087479,311.034637 
	C189.779327,309.853394 199.326859,316.074066 202.068527,325.234528 
	C203.120422,328.749115 204.706223,330.014008 208.335083,329.989105 
	C228.314499,329.851959 248.295364,329.897675 268.275604,329.943420 
	C271.190460,329.950073 273.068329,329.440155 274.152527,326.082458 
	C277.057220,317.086456 284.016418,311.938507 292.506348,311.741791 
	C300.420746,311.558411 308.270203,316.654633 311.494019,324.069427 
	C315.041656,332.228973 313.227386,340.936462 306.600739,347.401581 
	C305.769623,348.212433 304.824585,348.906464 303.619995,349.862427 
M305.729767,334.944397 
	C305.751373,333.450195 305.924927,331.939880 305.768524,330.464569 
	C305.070190,323.877930 299.949768,319.176392 293.415588,319.010590 
	C286.682648,318.839783 281.181213,323.514801 280.257446,330.192261 
	C279.227600,337.636627 283.193604,343.915314 289.935760,345.514221 
	C296.774506,347.136017 302.652191,343.474640 305.729767,334.944397 
M194.002441,339.270508 
	C197.175674,333.643860 196.980240,328.018433 193.097260,322.973480 
	C189.768173,318.648193 184.958374,317.399506 179.672668,318.774963 
	C174.205170,320.197693 170.635071,324.686127 170.237183,330.281464 
	C169.803604,336.378571 172.923828,342.003876 177.925171,344.141663 
	C183.182983,346.389099 188.814819,344.854828 194.002441,339.270508 
z"/>
</svg>